<?xml version="1.0" encoding="UTF-8"?>
<svg width="752pt" height="752pt" version="1.1" viewBox="0 0 752 752" xmlns="http://www.w3.org/2000/svg">
 <path d="m380.11 192.34c-101.25 0-183.66 82.43-183.66 183.66 0 101.25 82.418 183.66 183.66 183.66 101.24 0 183.66-82.418 183.66-183.66 0.003907-101.23-82.422-183.66-183.66-183.66zm38.66 183.66c0 21.367-17.289 38.672-38.66 38.672-21.371 0-38.664-17.305-38.664-38.672s17.289-38.664 38.664-38.664c21.371 0.003906 38.66 17.297 38.66 38.664zm-175.57-45.691c15.195-58.301 66.477-98.605 125.22-104.73 16.059-1.6758 15.887 23.387 0 25.043-47.652 4.9766-88.875 39.562-101.07 86.34-4.0742 15.625-28.219 8.9922-24.148-6.6484zm136.91 198.84c-69.867 0-129.05-47.727-147.43-111.21-0.023437-0.19531-0.023437-0.3125-0.050781-0.51953-3.457-25.328 10.41-26.145 11.801-26.145l59.543-0.003907c3.2305 1.3203 8.2344 5.4023 14.898 16.52 11.609 22.004 34.402 37.406 60.723 37.406 25.445 0 48.23-14.367 60.207-35.184 0.11719-0.20703 0.21875-0.32812 0.34766-0.54297 7.1836-12.469 12.52-16.816 15.914-18.203h59.711c1.3906 0 15.262 0.82422 11.805 26.145-0.039063 0.20703-0.039063 0.32812-0.058594 0.51953-18.371 63.492-77.539 111.22-147.41 111.22z" fill="#ff001b"/>
</svg>
